<svg xmlns="http://www.w3.org/2000/svg" viewBox="0 0 107.63 175.76" data-reactid="34"><path class="leaf-1" d="M 61.56 160.89 a 25.84 25.84 0 0 1 -2.26 -3.14 a 14.65 14.65 0 0 1 -3 -4.26 l -0.38 -1.24 c -0.2 -0.49 -0.52 -1 -0.69 -1.36 s -0.36 -0.76 -0.54 -1.13 s -0.25 -1.32 -0.4 -1.69 a 12.87 12.87 0 0 0 -0.82 -1.69 s -0.2 -0.79 -0.3 -1.25 a 3.83 3.83 0 0 1 0 -1 a 38.22 38.22 0 0 1 -0.24 -6.72 a 24.76 24.76 0 0 1 0.15 -4.14 c 0.09 -0.59 0.15 -1.15 0.28 -1.7 s 0.28 -1.09 0.45 -1.63 l 0.06 -1.1 l 0.12 -1.11 A 69.41 69.41 0 0 1 58.68 115 c 2.53 -5.45 0.51 -2.93 4.86 -8.77 c 1.11 -1.48 8.11 -11.29 9.28 -12.72 c 0.42 -0.51 0.8 -1.37 1.22 -1.88 c 3 -3.59 3.72 -3.34 3.94 -3.9 s 7.31 -8 8.37 -9 l 3.06 -2.83 a 42.56 42.56 0 0 0 4.4 -4.37 c 0.46 -0.61 3 -3.87 3.4 -4.57 l 1.66 -2.24 c 0.22 -0.35 0.94 -1.14 1.16 -1.49 a 41.57 41.57 0 0 0 4.42 -8.77 a 46.31 46.31 0 0 0 2 -6.72 c 0.16 -0.7 0.59 -1.53 0.42 -2.13 c -0.29 -1 0.31 -2 0.41 -3.06 c 0.45 -3.79 0.5 -7.8 -0.38 -10.53 c -0.27 -0.83 -0.22 -2.49 -0.43 -3.33 a 33.21 33.21 0 0 0 -5.57 -11.38 c -0.49 -0.71 -0.78 -1.57 -1.32 -2.23 s -1.34 -1.18 -1.93 -1.81 a 37.32 37.32 0 0 0 -5.7 -5 A 42.2 42.2 0 0 0 81.9 3.06 a 49.61 49.61 0 0 0 -4.82 -1.38 c -0.77 -0.17 -1.53 -0.36 -2.26 -0.49 s -1.31 -0.57 -2 -0.67 A 22.18 22.18 0 0 0 69.9 0.33 a 29.66 29.66 0 0 0 -3 -0.32 c -1 0 -4.67 0.24 -6.27 0.29 c -1.39 0.14 -2.45 0.24 -3.25 0.34 L 55.63 1 a 2.82 2.82 0 0 0 -0.94 0.26 a 4.19 4.19 0 0 1 -0.94 0.33 C 53 1.78 51.58 2.08 49 3 A 110.26 110.26 0 0 0 35.53 9.49 A 126.85 126.85 0 0 0 23 19.84 c -0.44 0.42 -0.68 1.29 -1.09 1.71 c -0.73 0.73 -1.6 1 -2.21 1.72 c -2.38 2.76 -6.55 7.46 -6.49 8.54 s -3.57 5.79 -4.94 8.5 A 86.7 86.7 0 0 0 3.07 53 C 1.78 58.71 -0.06 70.23 0.19 71.06 a 15.85 15.85 0 0 1 -0.06 3.55 c 0 1.53 -0.32 8.14 0.06 8.9 A 62.12 62.12 0 0 1 1.47 94 c -0.12 1.62 1.71 9.88 2.74 14 c 0.54 2 1 3.87 1.51 5.39 A 26.31 26.31 0 0 0 6.65 116 c 0.55 1.4 0.91 2.41 1.17 3.21 s 0.45 1.38 0.6 1.93 a 16.32 16.32 0 0 0 1.72 4.2 c 0.43 0.37 2.1 4 3 5.73 l 2.63 5.15 c 1.3 2.67 2.08 3.24 4.82 7.3 L 22.09 146 l 2.81 3.81 L 27.37 153 l 2 2.27 A 82 82 0 0 0 38 164.12 a 51.73 51.73 0 0 0 12 7.89 l 2.57 1.7 l 2.69 1.56 l 0.44 0.13 c 0.22 0.07 0.44 0.12 0.44 0.12 a 14.12 14.12 0 0 0 1.81 -1.1 a 11.39 11.39 0 0 0 3 -2.93 c 0.8 -1.23 4.09 -5.75 3.77 -7.17 C 64.58 163.61 61.56 160.89 61.56 160.89 Z m 32 -115.58 c -0.13 0.65 -0.47 1.28 -0.64 1.93 c -0.1 0.4 0 0.82 -0.15 1.22 a 41.73 41.73 0 0 1 -3.1 7.35 c -1.33 2.41 -2.7 4.83 -2.36 4.5 c -0.11 1 -1.09 1.19 -1.35 1.54 c -0.51 0.73 -1.5 1 -2.14 1.66 s -1.27 1.41 -2.08 2.13 L 80.49 66.8 l -0.65 0.61 l -0.76 0.69 c -4.13 3.71 -9.93 10.33 -10.42 10.64 c -1.72 1.06 -4.93 5.51 -5.61 6 a 65.27 65.27 0 0 0 -4 6.34 a 32 32 0 0 1 -3.69 4.85 c -0.27 0.42 -2.83 3.57 -2.91 4.66 s -2.14 2.72 -8.13 15.31 c -0.12 0.31 -0.72 1.46 -1.67 4.06 c -0.23 0.63 -0.09 0.54 -0.36 1.34 c 0 0.15 -0.48 1.1 -0.52 1.25 c -1.2 4.18 -2.44 8.32 -2 12.8 c 0.28 3.13 0.25 6.13 0.51 9.41 c 0.08 1.33 0.92 3.94 0.81 3.2 a 11.94 11.94 0 0 1 0.46 1.93 c -4 -4.16 -7.5 -8.44 -8 -9.68 c -0.87 -2 -3.62 -5.58 -5.25 -8.53 c -2.16 -3.91 -3.42 -7.51 -4.34 -8.92 a 54.49 54.49 0 0 1 -3 -7.64 c -1.95 -4.44 -1.41 -3.83 -2.74 -8 c -0.19 -1.22 -0.89 -4.61 -1.19 -6.48 s -0.58 -1 -1.6 -7.17 a 57.32 57.32 0 0 1 -0.78 -6 c -0.21 -2.39 -0.84 -5 -0.83 -5.15 l -0.27 -1.85 c -0.14 -2.39 0.06 -2.74 0.18 -3 a 13.31 13.31 0 0 0 -0.06 -4.13 c -0.34 -0.82 -0.1 -1.17 0.12 -2.88 c 0.08 -0.85 0.21 -1.7 0.32 -2.42 a 7.08 7.08 0 0 0 0.09 -1.7 a 35.18 35.18 0 0 0 0.73 -4.58 s 0.11 -0.74 0.26 -1.48 l 0.32 -1.47 c 0.43 -1.1 2.11 -5.6 4.13 -9.92 c 0.2 -0.45 0.07 -0.84 0.33 -1.39 c 0.13 -0.28 0.63 -0.7 0.77 -1 A 20.47 20.47 0 0 1 23.21 42 c 0.87 -0.79 3 -4.69 4.77 -6.94 a 71.91 71.91 0 0 1 5.57 -6.27 a 64 64 0 0 1 5.76 -5 c 3.73 -2.87 5.14 -3.94 4.6 -3.91 c 1.73 -1.34 2.81 -1.45 3.53 -2.12 A 6.82 6.82 0 0 0 50.22 17 A 21.12 21.12 0 0 1 53 16.12 c 0.52 -0.06 1.27 -0.44 1.53 -0.45 l 0.52 0 a 25.31 25.31 0 0 1 5.22 -1.23 c 0.19 0 0.33 -0.26 0.94 -0.29 c 0.3 0 0.73 0.22 1.31 0.22 s 1.3 -0.05 2.36 0 s 2.24 0 3.15 0.06 s 1.74 0 2.46 0.11 s 1.64 0.47 2.27 0.58 s 1.75 -0.1 2.06 0 s 0.7 0.19 1.11 0.29 s 0.83 0.2 1.18 0.31 a 1.52 1.52 0 0 1 0.7 0.41 a 30.17 30.17 0 0 1 3.49 1.07 c 1 0.44 3.44 2.93 3.76 3.15 c 0 0 -0.29 -0.44 0 -0.17 l 0.86 0.78 a 15.6 15.6 0 0 1 1.39 1.44 c 0.44 0.44 1.71 1.37 1.71 1.37 c 1.36 1.69 2.26 3.3 2.19 4.27 L 92 30.19 a 18.47 18.47 0 0 1 0.69 1.88 c 0.11 0.32 0.76 2.15 1 3.06 a 26.57 26.57 0 0 1 0.38 3.33 A 28.41 28.41 0 0 1 93.54 45.31 Z" data-reactid="35" /><path class="leaf-2" d="M 105.32 116.75 c 0 -0.63 0 -1.36 0.09 -2.08 a 12 12 0 0 0 -0.1 -3.27 a 27.54 27.54 0 0 0 -0.35 -3.58 l -0.38 -2.29 a 16.6 16.6 0 0 0 -0.14 -3.45 l -0.4 -2.27 c -0.18 -0.81 -0.42 -1.67 -0.65 -2.58 a 34.31 34.31 0 0 0 -2 -6.22 c -1.29 -2.08 -1.68 -3.87 -2.72 -5.77 a 43.69 43.69 0 0 0 -8.07 -10.64 l -2.13 -1.94 a 32.79 32.79 0 0 0 -4.73 -3.3 a 21.09 21.09 0 0 1 -3.16 -1.58 a 20.79 20.79 0 0 0 -2.47 -1.05 l -0.78 -0.56 c -0.49 -0.17 -0.92 -0.34 -1.31 -0.46 l -1 -0.26 l -1.38 -0.33 c -0.66 -0.15 -1.33 -0.36 -1.86 -0.54 s -4.26 -0.8 -4.71 -0.85 a 12.46 12.46 0 0 0 -1.28 0 c -0.8 0 -1.51 0 -2.15 0 l -1.81 0 c -0.65 0.05 -0.51 0.22 -1.71 0.38 a 3.12 3.12 0 0 0 -1.75 0.14 a 6.34 6.34 0 0 1 -2 0.31 c -0.57 0.17 -1.78 0.52 -2.67 0.85 s -0.89 0.81 -1.25 0.86 a 4.76 4.76 0 0 0 -1.53 0.17 a 28.91 28.91 0 0 0 -6.61 4.73 a 12.38 12.38 0 0 0 -1.11 1.4 L 42 73.34 l -1.54 2 c -0.43 0.63 -1.21 1.45 -1.57 2 s -1.36 2.93 -1.64 3.55 a 1.83 1.83 0 0 0 -0.2 1 c -0.19 0.44 -1.15 3.23 -1.31 3.8 A 33.71 33.71 0 0 0 34.6 93 a 35.43 35.43 0 0 0 0.12 4 a 22.12 22.12 0 0 0 0.93 4.17 c 0.66 2.46 0.72 3.13 1.2 3.86 c 0 0 1 1.88 1.15 2.19 a 16.33 16.33 0 0 0 1.46 2.67 c 1.25 1.57 0.95 1.08 2.54 3.31 c 2.21 3.09 5.58 5.82 8.51 8.56 s 3.76 3 5.54 5.33 s 5.09 7.18 5.4 7.63 c 1.23 1.75 1.78 5.36 1.63 7.5 a 40.33 40.33 0 0 1 -2 8.27 c -0.29 0.88 -0.11 1.81 -0.35 2.43 c -1.48 3.79 -6.47 16.21 -6.72 17.46 a 6 6 0 0 0 0.08 3.73 c 0.56 1.07 1.93 1.7 4.4 1.7 a 32.08 32.08 0 0 1 3.35 -0.4 c 0.43 -0.17 2.57 -1 3.61 -1.31 c 1.82 -0.89 2.38 -0.74 4.51 -1.8 a 29.59 29.59 0 0 0 5.5 -3.8 c 2.44 -2.34 5.48 -4.55 7.75 -6.9 a 77.84 77.84 0 0 0 5.77 -6.69 c 0.24 -0.16 4.06 -5.2 3.92 -4.9 a 86.32 86.32 0 0 0 4.91 -8.51 a 26.34 26.34 0 0 0 2.41 -4.14 a 25.33 25.33 0 0 1 2.17 -5.13 a 19.59 19.59 0 0 0 0.87 -3.19 c 0.35 -1 0.61 -2.07 0.84 -2.95 a 33.56 33.56 0 0 0 0.73 -4.62 A 40.79 40.79 0 0 0 105.32 116.75 Z m -11.6 -0.45 c 0 0.3 -0.06 2 -0.1 2.42 c 0 0.78 -0.44 3.56 -0.61 4.64 a 31.48 31.48 0 0 1 -1.84 5.31 a 62.25 62.25 0 0 1 -3 6.33 l -2.36 4.12 a 10.31 10.31 0 0 1 -1.61 2.64 a 26.26 26.26 0 0 0 -1.93 3.35 a 22.35 22.35 0 0 1 -1.22 2.1 s -4.28 6.16 -4.92 6.7 a 27.76 27.76 0 0 0 -2.25 2.65 c -1.33 2 -2.43 2 -3.69 3 c -0.35 0.3 -0.74 0.6 -1.15 0.91 c 0 -0.08 1.35 -2.35 1.35 -2.35 a 12.4 12.4 0 0 0 1.69 -3.29 c -0.18 0.66 0.38 -0.71 0.73 -2.08 A 37.4 37.4 0 0 0 74.2 147 v -2.71 a 30.4 30.4 0 0 0 -1.71 -12.1 a 32.4 32.4 0 0 0 -3.94 -7.46 a 30.88 30.88 0 0 0 -5.34 -6.34 a 129.74 129.74 0 0 1 -10.08 -9.72 a 30.82 30.82 0 0 1 -5 -6.23 l 0.15 0.18 a 14.71 14.71 0 0 1 -1.43 -3.23 a 10.29 10.29 0 0 1 -0.38 -1.85 a 7.69 7.69 0 0 1 -0.08 -1 a 9.72 9.72 0 0 1 0 -1.12 c 0.08 -0.87 0.06 -1.8 0.23 -2.68 c 0.06 -0.45 0.29 -0.87 0.35 -1.33 s 0 -0.93 0.13 -1.38 a 27 27 0 0 1 0.75 -2.67 a 4 4 0 0 1 0.69 -1.28 l 0.25 -0.64 l 0.13 -0.6 a 17.38 17.38 0 0 1 6.54 -7.44 a 12.78 12.78 0 0 1 3.85 -1.58 c 0.32 -0.07 0.6 0 0.91 0 s 0.64 -0.23 0.94 -0.27 a 6.84 6.84 0 0 1 0.92 -0.07 l 1 0 c 0.81 0.22 1.78 0.25 2.73 0.42 s 2.17 0.12 2.9 0.24 c 2.44 0.73 2.54 0.7 2.65 0.66 s 0.27 -0.19 2.66 0.81 c 0.35 0.14 0.73 0.51 1.18 0.73 s 1 0.27 1.49 0.56 a 25.19 25.19 0 0 1 3.47 2.32 c 2.4 2 4.29 3.41 6.28 6.56 c 0.34 0.55 1.28 2.4 1.58 3 a 41.32 41.32 0 0 1 2.18 4.78 c 0.25 0.64 0.71 1 0.92 1.62 s 0.09 1.24 0.23 1.7 c 0.36 1.57 0.8 3 1 4.18 l 0.46 2.94 a 18.21 18.21 0 0 1 0.48 2.4 a 19.5 19.5 0 0 1 0.28 2.58 c 0.07 1.71 0.23 2.3 0.29 3.81 C 93.91 114.76 93.72 116 93.72 116.29 Z" data-reactid="36" /><path class="leaf-2" d="M 61.51 173.91 h 0 C 61.43 173.93 61.39 173.95 61.51 173.91 Z" data-reactid="37" /></svg>